<?xml version="1.0" encoding="utf-8"?>
<svg viewBox="0.458 137.434 705 705" style="shape-rendering:geometricPrecision;text-rendering:geometricPrecision;image-rendering:optimizeQuality;" fill-rule="evenodd" clip-rule="evenodd" xmlns="http://www.w3.org/2000/svg">
  <defs>
    <style type="text/css">
   
    .fil0 {fill:black}
   
  </style>
  </defs>
  <g>
    <path class="fil0" d="M 441.286 786.553 L 400.079 786.679" style=""/>
    <path class="fil0" d="M 358.191 783.453 L 427.838 795.406 L 444.358 765.19 L 460.878 734.975 C 480.403 715.45 507.303 697.238 532.555 679.995 C 557.808 662.753 581.413 646.48 594.348 630.835 C 607.288 615.2 622.308 583.988 635.156 552.72 C 648.005 521.453 658.68 490.133 662.93 474.282 C 667.18 458.422 660.03 445.601 649.459 440.835 C 638.886 436.069 624.893 439.356 615.458 455.712 C 606.008 472.067 593.33 495.496 581.283 517.837 C 569.235 540.178 557.818 561.434 550.888 573.445 C 543.943 585.455 524.988 594.103 507.769 599.748 C 490.55 605.393 475.068 608.035 475.068 608.035 C 475.068 608.035 477.995 604.808 483.054 597.479 C 488.113 590.15 495.303 578.72 503.828 562.314 C 512.353 545.888 511.951 524.283 505.502 511.199 C 499.053 498.116 486.558 493.553 470.898 511.213 C 455.223 528.878 432.373 557.489 413.442 581.684 C 394.509 605.878 379.496 625.655 379.496 625.655 L 359.901 698.81" style="fill: rgb(119, 119, 119);" transform="matrix(0.988932, -0.148369, 0.148369, 0.988932, -85.903494, 82.673727)"/>
    <path class="fil0" d="M 335.221 780.874 L 336.34 780.178 L 270.942 793.325 L 254.427 763.11 L 237.912 732.895 C 218.382 713.37 191.479 695.158 166.226 677.915 C 140.972 660.673 117.367 644.4 104.432 628.755 C 91.497 613.12 76.477 581.908 63.628 550.641 C 50.779 519.375 40.102 488.055 35.852 472.205 C 31.607 456.345 38.757 443.525 49.327 438.759 C 59.897 433.992 73.887 437.28 83.322 453.635 C 92.772 469.99 105.449 493.418 117.498 515.759 C 129.547 538.1 140.967 559.355 147.902 571.365 C 154.847 583.375 173.802 592.023 191.021 597.668 C 208.239 603.313 223.722 605.955 223.722 605.955 C 223.722 605.955 220.794 602.728 215.736 595.399 C 210.677 588.07 203.487 576.64 194.962 560.235 C 186.437 543.81 186.837 522.205 193.283 509.121 C 199.729 496.038 212.222 491.475 227.882 509.135 C 243.557 526.8 266.407 555.41 285.338 579.604 C 304.269 603.798 319.282 623.575 319.282 623.575 L 338.877 696.73 L 334.331 779.56" style="" transform="matrix(0.981319, 0.192387, -0.192387, 0.981319, 121.814523, -24.437387)"/>
    <path d="M 440.796 786.055 L 442.426 702.464 L 462.062 629.156 L 462.122 629.078 C 462.122 629.078 477.136 609.298 496.07 585.101 C 515.003 560.905 537.863 532.283 553.546 514.608 C 561.458 505.717 568.711 502.326 574.724 502.907 C 580.763 503.49 585.694 508.091 588.972 514.705 C 595.447 527.895 595.847 549.726 587.294 566.271 C 578.758 582.693 571.553 594.15 566.487 601.488 C 561.41 608.844 560.623 609.523 559.382 611.017 C 563.53 610.241 573.451 608.631 590.635 602.998 C 607.828 597.362 626.645 588.828 633.477 576.92 C 640.403 564.917 651.817 543.668 663.865 521.327 C 675.912 498.985 688.593 475.551 698.047 459.19 C 702.82 450.946 708.8 445.914 714.876 443.614 C 720.971 441.307 727.311 441.704 732.684 444.108 C 738.043 446.542 742.615 451.057 745.229 456.923 C 747.839 462.778 748.565 470.12 746.433 478.139 C 742.178 494.005 731.493 525.356 718.639 556.636 C 705.786 587.916 690.728 619.193 677.755 634.879 C 664.77 650.57 641.113 666.89 615.859 684.133 C 590.606 701.376 563.789 719.527 544.304 739.003 L 511.127 799.683 L 441.162 787.676 L 427.681 787.095 L 398.32 787.184 L 398.588 787.018 L 335.538 799.693 L 302.366 739.003 C 282.876 719.527 256.056 701.376 230.802 684.133 C 205.547 666.89 181.891 650.57 168.905 634.879 C 155.937 619.193 140.878 587.916 128.024 556.636 C 115.169 525.356 104.482 494.005 100.227 478.139 C 98.097 470.119 98.825 462.778 101.435 456.923 C 104.05 451.057 108.615 446.527 113.979 444.108 C 119.345 441.689 125.691 441.307 131.785 443.614 C 137.86 445.914 143.839 450.946 148.613 459.19 C 158.066 475.551 170.747 498.985 182.796 521.327 C 194.845 543.668 206.262 564.916 213.193 576.92 C 220.025 588.827 238.842 597.363 256.035 602.998 C 273.217 608.634 283.141 610.241 287.288 611.018 C 286.048 609.523 285.261 608.843 280.183 601.488 C 275.118 594.15 267.911 582.693 259.376 566.27 C 250.823 549.726 251.221 527.895 257.692 514.705 C 260.969 508.091 265.899 503.49 271.937 502.907 C 277.95 502.326 285.202 505.717 293.114 514.608 C 308.797 532.283 331.657 560.905 350.59 585.101 C 369.523 609.298 384.538 629.078 384.538 629.078 L 384.598 629.156 L 404.239 702.483 L 399.716 784.887 L 427.701 786.095 Z M 441.782 786.768 L 510.593 798.577 L 543.496 738.397 L 543.546 738.346 C 563.108 718.791 590.044 700.55 615.295 683.307 C 640.547 666.066 664.1 649.84 676.985 634.241 C 689.892 618.657 704.873 587.51 717.715 556.256 C 730.557 525.004 741.222 493.715 745.467 477.88 C 747.585 470.04 746.861 463.042 744.316 457.33 C 741.775 451.63 737.486 447.352 732.273 445.02 C 727.075 442.658 721.133 442.315 715.23 444.549 C 709.308 446.79 703.575 451.579 698.913 459.69 C 689.467 476.039 676.792 499.461 664.745 521.801 C 652.697 544.142 641.277 565.403 634.343 577.42 C 627.285 589.532 608.192 598.294 590.947 603.948 C 573.693 609.605 558.174 612.253 558.174 612.253 L 556.747 612.497 L 557.72 611.424 C 557.72 611.424 560.624 608.222 565.665 600.92 C 570.717 593.6 577.892 582.197 586.406 565.809 C 594.903 549.504 594.499 528.125 588.076 515.147 C 584.905 508.678 580.364 504.456 574.628 503.902 C 568.867 503.346 562.042 506.503 554.294 515.272 C 538.627 532.927 515.787 561.525 496.858 585.717 C 477.928 609.908 464.018 628.235 462.978 629.604 L 443.424 702.606 Z M 399.236 785.867 L 398.662 785.843 L 403.231 702.587 L 383.682 629.604 C 382.642 628.235 368.731 609.908 349.802 585.717 C 330.873 561.525 308.033 532.927 292.366 515.272 C 284.618 506.503 277.794 503.346 272.033 503.902 C 266.298 504.456 261.759 508.678 258.59 515.147 C 252.169 528.125 251.767 549.504 260.264 565.81 C 268.779 582.197 275.952 593.6 281.005 600.92 C 286.043 608.223 288.95 611.424 288.95 611.424 L 289.925 612.497 L 288.496 612.253 C 288.496 612.253 272.977 609.602 255.723 603.948 C 238.478 598.293 219.385 589.533 212.327 577.42 C 205.388 565.404 193.965 544.142 181.916 521.801 C 169.867 499.461 157.194 476.039 147.747 459.69 C 143.085 451.579 137.352 446.79 131.431 444.549 C 125.529 442.315 119.594 442.673 114.391 445.02 C 109.185 447.367 104.89 451.63 102.349 457.33 C 99.802 463.042 99.078 470.041 101.193 477.881 C 105.438 493.715 116.105 525.004 128.948 556.256 C 141.791 587.51 156.773 618.657 169.675 634.241 C 182.559 649.84 206.113 666.066 231.366 683.307 C 256.618 700.55 283.557 718.791 303.124 738.346 L 303.174 738.397 L 336.062 798.567 Z" style="fill: none;"/>
  </g>
  <path d="M 538.155 350.949 C 538.155 246.618 453.137 161.601 348.807 161.601 C 244.286 161.601 159.458 246.618 159.458 350.949 C 159.458 455.47 244.286 540.297 348.807 540.297 C 453.137 540.297 538.155 455.47 538.155 350.949 Z M 306.772 452.629 L 242.204 279.376 C 252.618 278.997 264.357 277.861 264.357 277.861 C 273.825 276.725 272.689 256.464 263.221 256.843 C 263.221 256.843 235.766 258.926 218.345 258.926 C 214.938 258.926 211.34 258.926 207.363 258.737 C 237.47 212.536 289.541 182.619 348.807 182.619 C 392.924 182.619 433.067 199.092 463.362 226.927 C 450.487 224.843 432.12 234.31 432.12 256.843 C 432.12 270.855 440.64 282.594 449.161 296.607 C 455.789 308.157 459.575 322.358 459.575 343.186 C 459.575 371.399 433.067 437.86 433.067 437.86 L 375.694 279.376 C 385.919 278.997 391.221 276.157 391.221 276.157 C 400.688 275.21 399.552 252.488 390.084 253.056 C 390.084 253.056 362.818 255.328 345.019 255.328 C 328.546 255.328 300.902 253.056 300.902 253.056 C 291.434 252.488 290.298 275.779 299.765 276.157 L 317.186 277.671 L 341.043 342.239 Z M 489.113 350.949 C 493.658 338.831 503.126 315.541 497.256 270.477 C 510.509 294.902 517.137 321.79 517.137 350.949 C 517.137 413.245 484.38 469.102 433.824 498.262 C 452.19 449.221 470.558 399.801 489.113 350.949 Z M 274.961 504.132 C 218.535 476.866 180.476 417.789 180.476 350.949 C 180.476 326.334 184.831 303.991 194.109 282.973 C 220.997 356.63 247.884 430.476 274.961 504.132 Z M 351.268 378.594 L 400.12 510.759 C 383.836 516.25 366.794 519.28 348.807 519.28 C 333.848 519.28 319.079 517.197 305.446 513.031 C 320.783 467.967 336.12 423.28 351.268 378.594 Z" style=""/>
  <g transform="matrix(1, 0, 0, 1, 133.681564, 241.066467)"/>
</svg>